<svg width="118" height="118" viewBox="0 0 118 118" fill="none" xmlns="http://www.w3.org/2000/svg">
<g id="wheel">
<path id="Vector" d="M58.87 117.74C91.383 117.74 117.74 91.383 117.74 58.87C117.74 26.357 91.383 0 58.87 0C26.357 0 0 26.357 0 58.87C0 91.383 26.357 117.74 58.87 117.74Z" fill="#263370"/>
<path id="Vector_2" d="M106.09 58.82C106.111 70.9677 101.466 82.6595 93.1138 91.4802C84.7615 100.301 73.3402 105.577 61.2095 106.217C49.0787 106.858 37.1652 102.815 27.93 94.9235C18.6949 87.0319 12.8436 75.8945 11.5851 63.8122C10.3265 51.7299 13.7567 39.6258 21.1672 30.0002C28.5776 20.3746 39.4021 13.963 51.4045 12.09C63.4069 10.2169 75.6702 13.0254 85.6612 19.9354C95.6521 26.8453 102.607 37.3288 105.09 49.22C105.749 52.3778 106.084 55.5944 106.09 58.82Z" fill="#3F8FFE"/>
<path id="Vector_3" opacity="0.5" d="M58.8 99.5C81.2172 99.5 99.39 81.2825 99.39 58.81C99.39 36.3375 81.2172 18.12 58.8 18.12C36.3827 18.12 18.21 36.3375 18.21 58.81C18.21 81.2825 36.3827 99.5 58.8 99.5Z" fill="#18218A"/>
<path id="Vector_4" d="M72.38 13.39V15.11L58.87 59.84L48.03 12.65C56.073 10.7752 64.4658 11.0303 72.38 13.39V13.39Z" fill="#3F8FFE"/>
<path id="Vector_5" d="M72.28 104.27C64.5419 106.562 56.3474 106.844 48.47 105.09L58.86 59.84L72.28 104.27Z" fill="#3F8FFE"/>
<path id="Vector_6" d="M106.09 58.82C106.097 63.7547 105.334 68.6603 103.83 73.36H103.64L58.9099 59.85L105.17 49.23C105.799 52.3875 106.107 55.6005 106.09 58.82Z" fill="#3F8FFE"/>
<path id="Vector_7" d="M58.87 59.84L14.14 73.35H13.79C11.2988 65.5399 10.8546 57.221 12.5 49.19L58.87 59.84Z" fill="#3F8FFE"/>
<path id="Vector_8" d="M58.8 64C61.6663 64 63.99 61.6764 63.99 58.81C63.99 55.9436 61.6663 53.62 58.8 53.62C55.9336 53.62 53.61 55.9436 53.61 58.81C53.61 61.6764 55.9336 64 58.8 64Z" fill="#182A7C"/>
</g>
</svg>
