<svg width="801" height="239" viewBox="0 0 801 239" fill="none" xmlns="http://www.w3.org/2000/svg">
<g id="speed-car">
<g id="rest-of-car">
<path id="Vector" d="M210.03 79.95C210.03 79.95 327.28 5.03998 408.34 5.03998C408.34 5.03998 505.93 -10.16 612.08 15.53C718.23 41.22 757.44 74.53 786.87 64.75L663.23 68.37L210.03 79.95Z" fill="#8CD0F3"/>
<path id="Vector_2" opacity="0.1" d="M210.03 79.95C210.03 79.95 327.28 5.03998 408.34 5.03998C408.34 5.03998 505.93 -10.16 612.08 15.53C718.23 41.22 757.44 74.53 786.87 64.75L663.23 68.37L210.03 79.95Z" fill="#8CD0F3"/>
<path id="Vector_3" d="M762.68 194.6H47.6L67.26 115.83L188.86 83.5L762.68 98.58V194.6Z" fill="#121C3F"/>
<path id="Vector_4" d="M800.32 145.38V170.52C800.32 170.52 779.09 185.92 777.16 197.98C777.16 197.98 746.76 205.7 738.08 205.7C737.29 205.7 736.43 205.7 735.53 205.79C736.886 202.151 737.946 198.409 738.7 194.6C740.829 183.911 740.561 172.882 737.915 162.309C735.269 151.736 730.31 141.881 723.397 133.455C716.484 125.029 707.788 118.241 697.935 113.58C688.083 108.92 677.319 106.502 666.42 106.502C655.521 106.502 644.757 108.92 634.905 113.58C625.052 118.241 616.356 125.029 609.443 133.455C602.53 141.881 597.571 151.736 594.925 162.309C592.279 172.882 592.011 183.911 594.14 194.6C595.163 199.753 596.736 204.782 598.83 209.6H557.61C557.61 209.6 557.23 209.73 556.61 210C554.4 211 549.19 213.64 548.44 217.79H206.83L199.83 217.73C201.318 215.233 202.654 212.648 203.83 209.99C206.025 205.066 207.655 199.91 208.69 194.62C210.723 184.517 210.617 174.101 208.378 164.042C206.139 153.983 201.817 144.504 195.691 136.218C189.565 127.931 181.77 121.02 172.809 115.931C163.849 110.841 153.921 107.685 143.666 106.667C133.411 105.649 123.057 106.792 113.271 110.02C103.484 113.249 94.4829 118.493 86.8471 125.413C79.2113 132.333 73.1103 140.777 68.9375 150.2C64.7647 159.622 62.6126 169.815 62.6201 180.12C62.6198 184.978 63.0954 189.825 64.0401 194.59C65.6516 202.659 68.606 210.399 72.7801 217.49C67.9001 216.3 57.2501 212.92 57.2501 212.92C57.2501 212.92 11.9001 208.1 0.320068 197.92L2.07007 196.71L9.49007 191.64L6.11006 178.64C5.70207 178.092 5.366 177.494 5.11006 176.86C4.21006 174.69 3.42007 170.66 6.60007 165.6C11.4201 157.88 9.01007 130.38 9.01007 130.38C9.01007 130.38 74.6301 85.03 203.94 74.89C203.94 74.89 207.03 77.29 213.41 77.79C217.73 78.14 223.56 77.61 230.97 74.89C230.97 74.89 241.58 79.71 286.97 53.66C286.97 53.66 364.18 0.579994 465.51 5.41999C465.51 5.41999 569.73 -0.860004 658.51 33.42C696.77 48.18 725.88 56.05 746.63 60.21C765.79 64.06 777.82 64.77 783.33 64.83H783.45C785.25 64.83 786.32 64.83 786.7 64.83H786.86C786.86 64.83 786.86 76.32 787.47 89.89V89.96C787.69 94.68 787.99 99.65 788.41 104.48V104.78C789.57 118.23 791.57 130.45 795.04 132.87L800.32 145.38Z" fill="#2856B8"/>
<path id="Vector_5" d="M19.4401 129.28C19.4401 129.28 48.5101 106.6 84.7001 111.43C84.7001 111.43 51.7701 137.49 36.9301 135.8L34.4001 133.63L19.4001 134.47C19.4001 134.47 17.1601 130.97 19.4401 129.28Z" fill="#8CD0F3"/>
<path id="Vector_6" opacity="0.2" d="M47.66 168.52V181.91C47.66 181.91 46.66 194.7 35.11 195.18L2.10999 196.81L9.51999 191.74L6.13998 178.74C5.73018 178.197 5.39394 177.601 5.13998 176.97C8.13998 174.21 15.21 169.55 29.59 168.55L47.66 168.52Z" fill="white"/>
<path id="Vector_7" opacity="0.2" d="M201.22 112.4L226.55 111.4C226.55 111.4 216.3 119.48 209.06 120.21C201.82 120.94 201.22 112.4 201.22 112.4Z" fill="white"/>
<path id="Vector_8" opacity="0.2" d="M254.54 189.24C254.54 189.24 483.61 157.39 538.98 167.52C538.98 167.52 555.26 168.61 561.42 175.12C567.58 181.63 561.42 177.41 561.42 177.41L254.54 189.24Z" fill="white"/>
<path id="Vector_9" opacity="0.5" d="M382.77 99.85C382.77 99.85 385.67 94.42 390.37 94.3L420.89 92.73C420.89 92.73 420.41 96.95 414.98 98.52L382.77 99.85Z" fill="#18218A"/>
<path id="Vector_10" opacity="0.5" d="M559.37 90.68C559.37 90.68 562.27 85.25 566.97 85.13L597.49 83.52C597.49 83.52 597.01 87.74 591.58 89.31L559.37 90.68Z" fill="#18218A"/>
<path id="Vector_11" d="M455.16 16.28L431.74 77.7L347.3 77.79H325.56H306.65H290.3H271.78C271.78 77.79 283.06 69.51 301.23 58.96C307.23 55.46 314.04 51.72 321.43 47.96C328.23 44.48 335.55 40.96 343.24 37.62C349.24 34.98 355.56 32.44 362.02 30.07C391.31 19.36 424.23 12.17 455.16 16.28Z" fill="#8CD0F3"/>
<path id="Vector_12" d="M587.84 61.13C587.84 61.13 552.56 66.36 518.89 70.23C506.02 71.71 493.39 72.99 483.05 73.7L481.61 73.8C477.61 74.06 473.9 74.23 470.75 74.29C465.75 74.38 462.01 74.16 460.14 73.56L469.87 14.81C469.87 14.81 481.87 14.94 499.62 15.81L503.5 16.02C507.19 16.23 511.08 16.47 515.14 16.75C520.94 17.15 527.05 17.63 533.35 18.21C563.77 21 598.23 26.01 620.05 35.03C666.48 54.25 587.84 61.13 587.84 61.13Z" fill="#8CD0F3"/>
<path id="Vector_13" d="M750.44 90.68V106.36C750.44 106.36 725.11 106.72 730.54 101.66C734.054 98.3 737.245 94.6171 740.07 90.66L750.44 90.68Z" fill="#8CD0F3"/>
<path id="Vector_14" d="M788.39 104.76L767.82 106.37V87.52C767.82 87.52 777.35 74.13 786.88 88.97L787.43 89.84L788.39 104.76Z" fill="#8CD0F3"/>
<path id="Vector_15" opacity="0.2" d="M321.44 48.02L306.65 77.83H290.3L301.23 59.02C307.26 55.52 314.05 51.79 321.44 48.02Z" fill="white"/>
<path id="Vector_16" opacity="0.2" d="M362.02 30.13L347.29 77.8H325.55L343.25 37.66C349.29 35.04 355.57 32.52 362.02 30.13Z" fill="white"/>
<path id="Vector_17" opacity="0.2" d="M515.16 18.8L483.07 75.71L481.63 75.81C477.63 76.07 473.92 76.24 470.77 76.3L499.64 17.87L503.52 18.08C507.16 18.28 511.08 18.52 515.16 18.8Z" fill="white"/>
<path id="Vector_18" opacity="0.2" d="M272.34 76.63L254.02 202.82L407.03 199.47L432.15 77.18L272.34 76.63Z" stroke="white" stroke-miterlimit="10"/>
<path id="Vector_19" opacity="0.5" d="M556.62 210.96C554.41 211.96 549.2 214.6 548.45 218.75H206.83L199.83 218.69C201.318 216.193 202.654 213.608 203.83 210.95L556.62 210.96Z" fill="#18218A"/>
<path id="Vector_20" opacity="0.1" d="M413.51 156.86H413.16C413.16 156.86 424.66 153.76 413.51 156.86Z" fill="black"/>
<path id="Vector_21" opacity="0.1" d="M508.58 214.77V216.47C508.448 215.911 508.448 215.329 508.58 214.77V214.77Z" fill="black"/>
</g>
<g id="left-wheel">
<path id="Vector_22" d="M136.39 238.99C168.903 238.99 195.26 212.633 195.26 180.12C195.26 147.607 168.903 121.25 136.39 121.25C103.877 121.25 77.52 147.607 77.52 180.12C77.52 212.633 103.877 238.99 136.39 238.99Z" fill="#182A7C"/>
<path id="Vector_23" d="M183.61 180.07C183.631 192.218 178.986 203.91 170.634 212.73C162.281 221.551 150.86 226.827 138.729 227.467C126.599 228.108 114.685 224.065 105.45 216.174C96.2149 208.282 90.3637 197.145 89.1051 185.062C87.8465 172.98 91.2768 160.876 98.6872 151.25C106.098 141.625 116.922 135.213 128.925 133.34C140.927 131.467 153.19 134.275 163.181 141.185C173.172 148.095 180.127 158.579 182.61 170.47C183.269 173.628 183.604 176.844 183.61 180.07Z" fill="#3F8FFE"/>
<path id="Vector_24" opacity="0.5" d="M136.32 220.75C158.737 220.75 176.91 202.532 176.91 180.06C176.91 157.588 158.737 139.37 136.32 139.37C113.903 139.37 95.73 157.588 95.73 180.06C95.73 202.532 113.903 220.75 136.32 220.75Z" fill="#18218A"/>
<path id="Vector_25" d="M149.9 134.64V136.36L136.39 181.09L125.55 133.9C133.593 132.025 141.986 132.28 149.9 134.64V134.64Z" fill="#3F8FFE"/>
<path id="Vector_26" d="M149.8 225.52C142.062 227.812 133.867 228.094 125.99 226.34L136.38 181.09L149.8 225.52Z" fill="#3F8FFE"/>
<path id="Vector_27" d="M183.61 180.07C183.617 185.005 182.854 189.91 181.35 194.61H181.16L136.43 181.1L182.69 170.48C183.319 173.638 183.627 176.85 183.61 180.07Z" fill="#3F8FFE"/>
<path id="Vector_28" d="M136.39 181.09L91.66 194.6H91.31C88.8188 186.79 88.3746 178.471 90.02 170.44L136.39 181.09Z" fill="#3F8FFE"/>
<path id="Vector_29" d="M136.32 185.25C139.186 185.25 141.51 182.926 141.51 180.06C141.51 177.194 139.186 174.87 136.32 174.87C133.454 174.87 131.13 177.194 131.13 180.06C131.13 182.926 133.454 185.25 136.32 185.25Z" fill="#182A7C"/>
</g>
<g id="right-wheel">
<path id="Vector_30" d="M666.06 238.99C698.573 238.99 724.93 212.633 724.93 180.12C724.93 147.607 698.573 121.25 666.06 121.25C633.547 121.25 607.19 147.607 607.19 180.12C607.19 212.633 633.547 238.99 666.06 238.99Z" fill="#182A7C"/>
<path id="Vector_31" d="M713.29 180.07C713.311 192.218 708.666 203.91 700.314 212.73C691.961 221.551 680.54 226.827 668.409 227.467C656.279 228.108 644.365 224.065 635.13 216.174C625.895 208.282 620.044 197.145 618.785 185.062C617.526 172.98 620.957 160.876 628.367 151.25C635.778 141.625 646.602 135.213 658.604 133.34C670.607 131.467 682.87 134.275 692.861 141.185C702.852 148.095 709.807 158.579 712.29 170.47C712.949 173.628 713.284 176.844 713.29 180.07Z" fill="#3F8FFE"/>
<path id="Vector_32" opacity="0.5" d="M666 220.75C688.417 220.75 706.59 202.532 706.59 180.06C706.59 157.588 688.417 139.37 666 139.37C643.583 139.37 625.41 157.588 625.41 180.06C625.41 202.532 643.583 220.75 666 220.75Z" fill="#18218A"/>
<path id="Vector_33" d="M679.57 134.64V136.36L666.06 181.09L655.22 133.9C663.263 132.025 671.656 132.28 679.57 134.64V134.64Z" fill="#3F8FFE"/>
<path id="Vector_34" d="M679.48 225.52C671.742 227.812 663.547 228.094 655.67 226.34L666.06 181.09L679.48 225.52Z" fill="#3F8FFE"/>
<path id="Vector_35" d="M713.29 180.07C713.297 185.005 712.534 189.91 711.03 194.61H710.8L666.06 181.09L712.32 170.47C712.967 173.629 713.292 176.845 713.29 180.07V180.07Z" fill="#3F8FFE"/>
<path id="Vector_36" d="M666.06 181.09L621.33 194.6H620.98C618.489 186.79 618.045 178.471 619.69 170.44L666.06 181.09Z" fill="#3F8FFE"/>
<path id="Vector_37" d="M666 185.25C668.866 185.25 671.19 182.926 671.19 180.06C671.19 177.194 668.866 174.87 666 174.87C663.134 174.87 660.81 177.194 660.81 180.06C660.81 182.926 663.134 185.25 666 185.25Z" fill="#182A7C"/>
</g>
</g>
</svg>
